<svg width="81" height="32" viewBox="0 0 81 32" fill="none" xmlns="http://www.w3.org/2000/svg">
<rect width="81" height="32" rx="5" fill="#183B56"/>
<path d="M40.64 9.28L42.22 19.88L44.4 9.04H47.28L44.1 24H41.68L39.98 13.54L37.76 24H34.88L37.76 10.42C36.8667 10.7933 36.18 11.3533 35.7 12.1C35.22 12.8467 34.98 13.74 34.98 14.78C34.98 15.0333 34.9933 15.2533 35.02 15.44C35.06 15.6267 35.12 15.8067 35.2 15.98C35.2267 16.0333 35.24 16.0733 35.24 16.1C35.2533 16.1133 35.26 16.1267 35.26 16.14C34.5133 16.14 33.9667 15.9867 33.62 15.68C33.2867 15.36 33.12 14.8667 33.12 14.2C33.12 13.56 33.28 12.9133 33.6 12.26C33.92 11.5933 34.36 11.0067 34.92 10.5C35.4533 10.0067 36.0467 9.63333 36.7 9.38C37.3667 9.12667 38.06 9 38.78 9C39.3 9 39.6867 9.02667 39.94 9.08C40.2067 9.12 40.44 9.18667 40.64 9.28ZM53.6994 15.74C53.6994 16.8467 53.246 17.8133 52.3394 18.64C51.4327 19.4533 50.3527 19.8933 49.0994 19.96C49.086 20.1867 49.0727 20.36 49.0594 20.48C49.0594 20.5867 49.0594 20.68 49.0594 20.76C49.0594 21.3733 49.1594 21.8067 49.3594 22.06C49.5727 22.3133 49.9527 22.44 50.4994 22.44C51.126 22.44 51.6994 22.3 52.2194 22.02C52.7527 21.7267 53.3594 21.1933 54.0394 20.42H54.7194C53.946 21.6733 53.106 22.6067 52.1994 23.22C51.2927 23.82 50.2994 24.12 49.2194 24.12C48.1927 24.12 47.4127 23.8533 46.8794 23.32C46.3594 22.7867 46.0994 21.9933 46.0994 20.94C46.0994 20.18 46.2194 19.3733 46.4594 18.52C46.6994 17.6667 47.0194 16.9067 47.4194 16.24C47.9127 15.44 48.4994 14.84 49.1794 14.44C49.8727 14.0267 50.646 13.82 51.4994 13.82C52.2327 13.82 52.7794 13.98 53.1394 14.3C53.5127 14.6067 53.6994 15.0867 53.6994 15.74ZM51.6594 14.88C51.206 14.88 50.746 15.2867 50.2794 16.1C49.826 16.9 49.486 17.8667 49.2594 19C50.0327 18.9467 50.706 18.5933 51.2794 17.94C51.866 17.2733 52.1594 16.5267 52.1594 15.7C52.1594 15.42 52.1194 15.2133 52.0394 15.08C51.9594 14.9467 51.8327 14.88 51.6594 14.88ZM53.8752 21.72C53.8752 21.5467 53.8885 21.3533 53.9152 21.14C53.9418 20.9133 53.9818 20.6733 54.0352 20.42L55.3952 14H58.2752L56.8352 20.8C56.8218 20.88 56.8085 20.9667 56.7952 21.06C56.7818 21.14 56.7752 21.22 56.7752 21.3C56.7752 21.58 56.8218 21.8 56.9152 21.96C57.0218 22.1067 57.1752 22.18 57.3752 22.18C57.7218 22.18 58.0285 22.0333 58.2952 21.74C58.5752 21.4333 58.8018 20.9933 58.9752 20.42L60.3352 14H63.2152L61.7752 20.8C61.7485 20.9467 61.7218 21.0867 61.6952 21.22C61.6818 21.34 61.6752 21.44 61.6752 21.52C61.6752 21.7333 61.7285 21.9 61.8352 22.02C61.9552 22.1267 62.1285 22.18 62.3552 22.18C62.8218 22.18 63.2752 21.94 63.7152 21.46C64.1685 20.9667 64.5752 20.2733 64.9352 19.38C65.2018 18.74 65.4152 18.0667 65.5752 17.36C65.7352 16.6533 65.8152 16.0333 65.8152 15.5C65.7885 15.5533 65.7018 15.6 65.5552 15.64C65.4218 15.68 65.2952 15.7 65.1752 15.7C64.9618 15.7 64.7885 15.6 64.6552 15.4C64.5218 15.1867 64.4552 14.9467 64.4552 14.68C64.4552 14.3467 64.5618 14.0867 64.7752 13.9C65.0018 13.7 65.3085 13.6 65.6952 13.6C66.1085 13.6 66.4218 13.7533 66.6352 14.06C66.8485 14.3667 66.9552 14.7933 66.9552 15.34C66.9552 16.2467 66.8352 17.2 66.5952 18.2C66.3685 19.1867 66.0552 20.0867 65.6552 20.9C65.1218 21.9533 64.4818 22.7533 63.7352 23.3C62.9885 23.8467 62.1618 24.12 61.2552 24.12C60.5885 24.12 60.0485 23.98 59.6352 23.7C59.2352 23.4067 58.9752 22.9867 58.8552 22.44C58.4685 23 58.0418 23.42 57.5752 23.7C57.1218 23.98 56.6018 24.12 56.0152 24.12C55.3485 24.12 54.8218 23.9133 54.4352 23.5C54.0618 23.0733 53.8752 22.48 53.8752 21.72ZM73.5378 20.66C73.5378 20.82 73.5311 20.96 73.5178 21.08C73.5045 21.2 73.4845 21.3133 73.4578 21.42C73.7245 21.26 73.9845 21.0933 74.2378 20.92C74.4911 20.7467 74.7111 20.58 74.8978 20.42H75.7378C75.3245 20.9 74.8645 21.3467 74.3578 21.76C73.8645 22.16 73.3045 22.5467 72.6778 22.92C72.3178 23.3067 71.8578 23.6067 71.2978 23.82C70.7378 24.02 70.1511 24.12 69.5378 24.12C68.6445 24.12 67.9311 23.88 67.3978 23.4C66.8778 22.9067 66.6178 22.2933 66.6178 21.56C66.6178 21.1467 66.7178 20.7733 66.9178 20.44C67.1178 20.0933 67.3711 19.8467 67.6778 19.7C68.1311 18.8867 68.5511 18.02 68.9378 17.1C69.3378 16.1667 69.7378 15.06 70.1378 13.78L73.0978 13.38C73.1378 14.38 73.1845 15.2933 73.2378 16.12C73.2911 16.9467 73.3578 17.8467 73.4378 18.82C73.4778 19.38 73.5045 19.7733 73.5178 20C73.5311 20.2267 73.5378 20.4467 73.5378 20.66ZM70.2578 15.94C70.0845 16.4867 69.8711 17.06 69.6178 17.66C69.3778 18.2467 69.0511 18.9333 68.6378 19.72C68.7845 19.7867 68.8978 19.88 68.9778 20C69.0578 20.12 69.0978 20.26 69.0978 20.42C69.0978 20.6733 69.0111 20.9 68.8378 21.1C68.6645 21.3 68.4578 21.4 68.2178 21.4C68.0845 21.4 67.9711 21.38 67.8778 21.34C67.7845 21.2867 67.7178 21.22 67.6778 21.14C67.6778 21.6333 67.7711 21.9933 67.9578 22.22C68.1578 22.4333 68.4711 22.54 68.8978 22.54C69.4445 22.54 69.8711 22.38 70.1778 22.06C70.4845 21.74 70.6378 21.28 70.6378 20.68C70.6378 20.4933 70.6311 20.3067 70.6178 20.12C70.6045 19.92 70.5778 19.5933 70.5378 19.14C70.4711 18.5133 70.4178 17.96 70.3778 17.48C70.3378 17 70.2978 16.4867 70.2578 15.94Z" fill="white"/>
<path d="M6.85928 6.22377C6.62686 6.27018 6.4628 6.45408 6.46866 6.66377V22.3663C6.46866 24.2346 7.57217 25.2881 8.65616 25.7625C9.74014 26.2369 10.8124 26.2163 10.8124 26.2163H26.1874V26.175C26.4276 26.1991 26.6874 26.2163 26.6874 26.2163C26.6874 26.2163 27.6483 26.2214 28.6093 25.735C29.5468 25.2606 30.4706 24.2569 30.5155 22.5175C30.5214 22.5089 30.5273 22.4986 30.5312 22.49C30.5312 22.4797 30.5312 22.4728 30.5312 22.4625C30.5331 22.4402 30.5331 22.4161 30.5312 22.3938V11.3525C30.5312 11.3474 30.5312 11.3439 30.5312 11.3388C30.5312 11.3388 30.539 10.8231 30.2343 10.2938C29.9296 9.76439 29.2206 9.19377 28.1093 9.19377V9.18002H23.3749V10.06H26.1562C26.0956 10.1356 26.0448 10.2044 25.9999 10.28C25.6952 10.8042 25.6874 11.325 25.6874 11.325V21.995C25.6855 22.1531 25.7792 22.301 25.9355 22.3817C26.0917 22.4608 26.2831 22.4608 26.4394 22.3817C26.5956 22.301 26.6894 22.1531 26.6874 21.995V11.325C26.6874 11.313 26.7069 10.995 26.8905 10.6788C27.078 10.3574 27.3417 10.0738 28.1093 10.0738C28.8749 10.0738 29.1386 10.3642 29.328 10.6925C29.5136 11.0156 29.5468 11.3405 29.5468 11.3525H29.5312V22.3938C29.5312 23.9596 28.8202 24.6196 28.1093 24.9788C27.3983 25.338 26.6874 25.3363 26.6874 25.3363C26.6874 25.3363 25.8417 25.326 24.9999 24.9513C24.1581 24.5766 23.3437 23.9183 23.3437 22.3663V6.66377C23.3437 6.42143 23.119 6.22377 22.8437 6.22377H6.96866C6.93155 6.22033 6.89639 6.22033 6.85928 6.22377ZM7.46866 7.10377H22.3437V22.3663C22.3437 23.8135 23.0409 24.7605 23.8593 25.3363H10.8124C10.8065 25.3363 10.8026 25.3363 10.7968 25.3363C10.7968 25.3363 10.5819 25.338 10.2655 25.295C10.1073 25.2727 9.93155 25.2366 9.73428 25.185C9.53702 25.1335 9.31827 25.0699 9.10928 24.9788C9.00381 24.9324 8.89835 24.8842 8.79678 24.8275C8.08194 24.4322 7.46866 23.7499 7.46866 22.3663V7.10377ZM9.46866 9.84002C9.19327 9.87439 8.99991 10.0996 9.03897 10.3419C9.07803 10.5842 9.33389 10.7544 9.60928 10.72H19.4687C19.6483 10.7217 19.8163 10.6392 19.9081 10.5017C19.998 10.3642 19.998 10.1958 19.9081 10.0583C19.8163 9.9208 19.6483 9.8383 19.4687 9.84002H9.60928C9.59366 9.84002 9.57803 9.84002 9.56241 9.84002C9.54678 9.84002 9.53116 9.84002 9.51553 9.84002C9.49991 9.84002 9.48428 9.84002 9.46866 9.84002ZM9.46866 11.6C9.19327 11.6344 8.99991 11.8596 9.03897 12.1019C9.07803 12.3442 9.33389 12.5144 9.60928 12.48H19.4687C19.6483 12.4817 19.8163 12.3992 19.9081 12.2617C19.998 12.1242 19.998 11.9558 19.9081 11.8183C19.8163 11.6808 19.6483 11.5983 19.4687 11.6H9.60928C9.59366 11.6 9.57803 11.6 9.56241 11.6C9.54678 11.6 9.53116 11.6 9.51553 11.6C9.49991 11.6 9.48428 11.6 9.46866 11.6ZM9.70303 15.12C9.42764 15.1544 9.23428 15.3796 9.27335 15.6219C9.31241 15.8642 9.56827 16.0344 9.84366 16H13.2343C13.414 16.0017 13.5819 15.9192 13.6737 15.7817C13.7636 15.6442 13.7636 15.4758 13.6737 15.3383C13.5819 15.2008 13.414 15.1183 13.2343 15.12H9.84366C9.82803 15.12 9.81241 15.12 9.79678 15.12C9.78116 15.12 9.76553 15.12 9.74991 15.12C9.73428 15.12 9.71866 15.12 9.70303 15.12ZM15.4687 15.12C15.1933 15.1544 14.9999 15.3796 15.039 15.6219C15.078 15.8642 15.3339 16.0344 15.6093 16H19.4687C19.6483 16.0017 19.8163 15.9192 19.9081 15.7817C19.998 15.6442 19.998 15.4758 19.9081 15.3383C19.8163 15.2008 19.6483 15.1183 19.4687 15.12H15.6093C15.5937 15.12 15.578 15.12 15.5624 15.12C15.5468 15.12 15.5312 15.12 15.5155 15.12C15.4999 15.12 15.4843 15.12 15.4687 15.12ZM9.70303 16.88C9.42764 16.9144 9.23428 17.1396 9.27335 17.3819C9.31241 17.6242 9.56827 17.7944 9.84366 17.76H13.2343C13.414 17.7617 13.5819 17.6792 13.6737 17.5417C13.7636 17.4042 13.7636 17.2358 13.6737 17.0983C13.5819 16.9608 13.414 16.8783 13.2343 16.88H9.84366C9.82803 16.88 9.81241 16.88 9.79678 16.88C9.78116 16.88 9.76553 16.88 9.74991 16.88C9.73428 16.88 9.71866 16.88 9.70303 16.88ZM15.4687 16.88C15.1933 16.9144 14.9999 17.1396 15.039 17.3819C15.078 17.6242 15.3339 17.7944 15.6093 17.76H19.4687C19.6483 17.7617 19.8163 17.6792 19.9081 17.5417C19.998 17.4042 19.998 17.2358 19.9081 17.0983C19.8163 16.9608 19.6483 16.8783 19.4687 16.88H15.6093C15.5937 16.88 15.578 16.88 15.5624 16.88C15.5468 16.88 15.5312 16.88 15.5155 16.88C15.4999 16.88 15.4843 16.88 15.4687 16.88ZM15.4687 18.5438C15.1933 18.5781 14.9999 18.8033 15.039 19.0456C15.078 19.288 15.3339 19.4581 15.6093 19.4238H19.4687C19.6483 19.4255 19.8163 19.343 19.9081 19.2055C19.998 19.068 19.998 18.8996 19.9081 18.7621C19.8163 18.6246 19.6483 18.5421 19.4687 18.5438H15.6093C15.578 18.5403 15.5468 18.5403 15.5155 18.5438C15.4999 18.5438 15.4843 18.5438 15.4687 18.5438ZM9.70303 18.64C9.42764 18.6744 9.23428 18.8996 9.27335 19.1419C9.31241 19.3842 9.56827 19.5544 9.84366 19.52H13.2343C13.414 19.5217 13.5819 19.4392 13.6737 19.3017C13.7636 19.1642 13.7636 18.9958 13.6737 18.8583C13.5819 18.7208 13.414 18.6383 13.2343 18.64H9.84366C9.82803 18.64 9.81241 18.64 9.79678 18.64C9.78116 18.64 9.76553 18.64 9.74991 18.64C9.73428 18.64 9.71866 18.64 9.70303 18.64ZM15.4687 20.3038C15.1933 20.3381 14.9999 20.5633 15.039 20.8056C15.078 21.048 15.3339 21.2181 15.6093 21.1838H19.4687C19.6483 21.1855 19.8163 21.103 19.9081 20.9655C19.998 20.828 19.998 20.6596 19.9081 20.5221C19.8163 20.3846 19.6483 20.3021 19.4687 20.3038H15.6093C15.578 20.3003 15.5468 20.3003 15.5155 20.3038C15.4999 20.3038 15.4843 20.3038 15.4687 20.3038ZM9.70303 20.4C9.42764 20.4344 9.23428 20.6596 9.27335 20.9019C9.31241 21.1442 9.56827 21.3144 9.84366 21.28H13.2343C13.414 21.2817 13.5819 21.1992 13.6737 21.0617C13.7636 20.9242 13.7636 20.7558 13.6737 20.6183C13.5819 20.4808 13.414 20.3983 13.2343 20.4H9.84366C9.82803 20.4 9.81241 20.4 9.79678 20.4C9.78116 20.4 9.76553 20.4 9.74991 20.4C9.73428 20.4 9.71866 20.4 9.70303 20.4ZM15.4687 21.9538C15.1933 21.9881 14.9999 22.2133 15.039 22.4556C15.078 22.698 15.3339 22.8681 15.6093 22.8338H19.4687C19.6483 22.8355 19.8163 22.753 19.9081 22.6155C19.998 22.478 19.998 22.3096 19.9081 22.1721C19.8163 22.0346 19.6483 21.9521 19.4687 21.9538H15.6093C15.5937 21.9538 15.578 21.9538 15.5624 21.9538C15.5468 21.9538 15.5312 21.9538 15.5155 21.9538C15.4999 21.9538 15.4843 21.9538 15.4687 21.9538ZM9.70303 22.16C9.42764 22.1944 9.23428 22.4195 9.27335 22.6619C9.31241 22.9042 9.56827 23.0744 9.84366 23.04H13.2343C13.414 23.0417 13.5819 22.9592 13.6737 22.8217C13.7636 22.6842 13.7636 22.5158 13.6737 22.3783C13.5819 22.2408 13.414 22.1583 13.2343 22.16H9.84366C9.82803 22.16 9.81241 22.16 9.79678 22.16C9.78116 22.16 9.76553 22.16 9.74991 22.16C9.73428 22.16 9.71866 22.16 9.70303 22.16Z" fill="white"/>
</svg>
